<svg width="89" height="19" viewBox="0 0 89 19" fill="none" xmlns="http://www.w3.org/2000/svg">
<line x1="3.95557" y1="9.02789" x2="81.3647" y2="9.02789" stroke="#CCCCCC" stroke-width="0.74754" stroke-dasharray="2.24 2.24"/>
<g clip-path="url(#clip0_1038_1229)">
<path d="M43.2614 16.4423H42.2407C42.1381 16.4423 42.0372 16.4188 41.9472 16.3739C41.8571 16.329 41.7808 16.2642 41.7253 16.1855C41.6697 16.1067 41.6366 16.0164 41.6291 15.923C41.6215 15.8295 41.6397 15.7358 41.682 15.6504L44.1537 10.6658L40.4424 10.5905L39.0888 12.0892C38.8308 12.3856 38.6248 12.5177 38.0995 12.5177H37.4124C37.3036 12.521 37.1956 12.5001 37.0975 12.4571C36.9993 12.414 36.914 12.35 36.8488 12.2704C36.7575 12.1579 36.6678 11.9673 36.7552 11.6953L37.5152 9.20743C37.5209 9.18886 37.5278 9.17029 37.5355 9.15207C37.5359 9.15033 37.5359 9.14855 37.5355 9.14681C37.5276 9.12861 37.5208 9.11001 37.5152 9.0911L36.7544 6.58742C36.672 6.32076 36.7621 6.13435 36.8526 6.02467C36.9134 5.95098 36.9922 5.89136 37.0828 5.85058C37.1733 5.80981 37.2731 5.78902 37.3741 5.78989H38.0995C38.4918 5.78989 38.8726 5.95073 39.0965 6.21038L40.422 7.68386L44.1537 7.6334L41.6828 2.65759C41.6404 2.57224 41.6221 2.47856 41.6296 2.38509C41.6371 2.29163 41.6701 2.20137 41.7256 2.12257C41.7811 2.04376 41.8573 1.97892 41.9473 1.93398C42.0373 1.88904 42.1381 1.86543 42.2407 1.86531H43.2725C43.4165 1.86795 43.5579 1.9002 43.6864 1.95965C43.8148 2.0191 43.927 2.10423 44.0145 2.20871L48.8094 7.53493L51.0245 7.48167C51.1867 7.47361 51.6361 7.47081 51.74 7.47081C53.8589 7.47186 55.1243 8.10049 55.1243 9.15382C55.1243 9.48531 54.9794 10.0999 54.0096 10.491C53.4372 10.7223 52.6733 10.8393 51.7393 10.8393C51.6365 10.8393 51.1883 10.8365 51.0238 10.8284L48.809 10.7745L44.0022 16.1007C43.9146 16.2047 43.8026 16.2894 43.6744 16.3486C43.5461 16.4077 43.405 16.4397 43.2614 16.4423V16.4423Z" fill="#1262AE"/>
</g>
<circle cx="4.14907" cy="9.40167" r="2.99016" fill="white" stroke="#1262AE" stroke-width="1.49508"/>
<circle cx="84.3979" cy="9.08993" r="2.99016" fill="white" stroke="#1262AE" stroke-width="1.49508"/>
<defs>
<clipPath id="clip0_1038_1229">
<rect width="19.6322" height="17.941" fill="white" transform="translate(36.1057 0.18335)"/>
</clipPath>
</defs>
</svg>
