<svg width="25" height="24" viewBox="0 0 25 24" fill="none" xmlns="http://www.w3.org/2000/svg">
<path d="M16.8069 0.955392C16.3144 0.467748 15.6465 0.193817 14.9502 0.193817C14.2538 0.193817 13.586 0.467748 13.0934 0.955392L1.56078 12.3816C1.31687 12.6232 1.12339 12.91 0.991386 13.2258C0.859384 13.5415 0.791443 13.8798 0.791443 14.2215C0.791443 14.5633 0.859384 14.9016 0.991386 15.2173C1.12339 15.533 1.31687 15.8199 1.56078 16.0615L2.92896 17.4158C3.52433 18.0068 4.36135 17.9015 4.86683 17.6031C5.14566 17.4391 5.47171 17.3718 5.79347 17.4118C6.11523 17.4518 6.41439 17.5968 6.64369 17.8239C6.87299 18.0511 7.01938 18.3475 7.05974 18.6662C7.1001 18.985 7.03214 19.308 6.86657 19.5842C6.56655 20.085 6.45915 20.9142 7.05569 21.504L8.42504 22.8594C8.66894 23.101 8.9585 23.2927 9.27718 23.4235C9.59586 23.5543 9.93742 23.6216 10.2824 23.6216C10.6273 23.6216 10.9689 23.5543 11.2875 23.4235C11.6062 23.2927 11.8958 23.101 12.1397 22.8594L23.6712 11.4355C23.9151 11.1939 24.1086 10.9071 24.2406 10.5914C24.3726 10.2757 24.4405 9.93728 24.4405 9.59557C24.4405 9.25385 24.3726 8.91548 24.2406 8.59977C24.1086 8.28407 23.9151 7.99721 23.6712 7.75558L22.3042 6.40017C21.7088 5.81036 20.8706 5.91444 20.3651 6.21282C20.0863 6.37684 19.7602 6.44417 19.4385 6.40419C19.1167 6.3642 18.8176 6.21918 18.5883 5.99202C18.359 5.76485 18.2126 5.46849 18.1722 5.14973C18.1318 4.83097 18.1998 4.50797 18.3654 4.23174C18.6666 3.73098 18.7728 2.90177 18.1763 2.31196L16.8081 0.955392H16.8069Z" fill="white"/>
</svg>
