<svg width="50" height="50" viewBox="0 0 50 50" fill="none" xmlns="http://www.w3.org/2000/svg">
<rect x="0.141251" y="0.467758" width="48.8794" height="48.8794" rx="11.9606" fill="#36DA76"/>
<path d="M30.9109 34.4346C30.8699 33.5574 30.8155 32.6849 30.7721 31.8143C30.6314 29.0909 30.6429 26.3275 30.4958 23.5906C30.3486 20.8742 30.4359 18.156 30.3582 15.4397C30.3426 14.8752 30.3678 13.7603 29.7837 13.4385C28.5271 12.7471 27.7811 14.6329 27.4614 15.4006C26.8851 16.7941 26.5522 18.2597 26.1405 19.7034C25.7897 20.9392 25.3902 22.171 25.2548 23.4504C25.1545 24.4105 25.1637 25.4852 25.6652 26.3503C25.9171 26.785 26.3526 27.0809 26.8484 27.206C27.363 27.3377 27.9514 27.1653 28.4398 27.3977C28.5657 27.4585 28.6766 27.5849 28.7271 27.7125C28.8854 28.1239 28.7356 28.7479 28.6861 29.1723C28.5294 30.5393 28.3636 31.92 28.2894 33.2936C28.2456 34.1242 28.197 35.1881 28.6995 35.9119C29.0076 36.3514 29.6318 36.7618 30.1951 36.5433C31.0369 36.2211 30.9459 35.1326 30.9109 34.4346V34.4346Z" fill="white"/>
<path d="M20.2013 14.0448C19.9593 14.1418 20.0511 15.0068 20.0403 15.2725C20.0244 15.75 20.057 16.3818 19.9995 17.0006C19.9992 17.0061 19.9983 17.0099 19.9975 17.0138C19.9926 17.0568 19.9885 17.1032 19.9814 17.1522C19.9739 17.1994 19.9659 17.245 19.9601 17.2919C19.9085 17.5936 19.8103 17.9508 19.6248 18.1221C19.4141 18.318 18.942 18.2768 18.778 18.0454C18.5098 17.6685 18.5299 16.8273 18.5136 16.8024C18.5027 16.4045 18.4447 15.2007 18.3577 14.4071C18.3505 14.3473 18.3389 13.9875 18.0105 13.9491C17.8573 13.9324 17.6962 14.063 17.6439 14.3014C17.4897 15.005 17.3452 16.3463 17.3361 16.5572C17.3343 16.5777 17.3334 16.6015 17.3333 16.6215C17.3333 16.6215 17.3325 16.6253 17.3329 16.627C17.3319 16.6708 17.2798 17.7216 17.0138 18.0842C16.8749 18.2743 16.514 18.4237 16.1554 18.2226C16.0126 18.1416 15.9147 17.9856 15.8457 17.8184C15.4707 16.6513 15.8073 15.3655 15.8552 14.7528C15.8694 14.5804 16.0255 14.0051 15.6773 14.0243C15.1531 14.0528 14.4762 16.2862 14.3551 16.7981C14.0584 18.0718 14.0134 19.4327 14.5296 20.6614C14.8163 21.3417 15.3772 21.8986 16.0727 22.1687C16.38 22.2869 16.7217 22.3727 17.0833 22.4225C16.9532 25.318 16.8055 28.3396 16.6709 30.0211C16.5674 31.2866 16.4452 32.5659 16.4617 33.8367C16.4714 34.5959 16.4634 35.5011 16.9617 36.1377C17.483 36.8027 18.5826 36.4968 18.8795 35.7109C19.2125 34.825 19.1157 33.7927 19.0023 32.1662C18.8884 30.538 18.7602 28.3168 18.6896 27.1218C18.5862 25.3621 18.5501 23.8244 18.5402 22.4214C19.4662 22.2891 20.3298 21.8918 20.8131 21.1611C21.0251 20.8415 21.1647 20.4844 21.2601 20.117C21.4063 19.5605 21.4776 18.9509 21.446 18.3769C21.4139 17.8483 20.9796 13.7331 20.2013 14.0448V14.0448Z" fill="white"/>
</svg>
