<svg width="50" height="50" viewBox="0 0 50 50" fill="none" xmlns="http://www.w3.org/2000/svg">
<rect x="0.212158" y="0.467743" width="48.8794" height="48.8794" rx="11.9606" fill="#F9668D"/>
<path d="M23.7964 21.5155H25.5085V20.6675C25.5085 20.4426 25.5987 20.2269 25.7592 20.0679C25.9197 19.9089 26.1375 19.8195 26.3645 19.8195H28.9326C29.1596 19.8195 29.3773 19.9089 29.5379 20.0679C29.6984 20.2269 29.7886 20.4426 29.7886 20.6675V21.5155H33.2126V18.1235C33.2126 17.2239 32.8519 16.3612 32.2098 15.7251C31.5676 15.0889 30.6967 14.7316 29.7886 14.7316H19.5164C18.6082 14.7316 17.7373 15.0889 17.0952 15.7251C16.453 16.3612 16.0923 17.2239 16.0923 18.1235V21.5155H19.5164V20.6675C19.5164 20.4426 19.6065 20.2269 19.7671 20.0679C19.9276 19.9089 20.1453 19.8195 20.3724 19.8195H22.9404C23.1675 19.8195 23.3852 19.9089 23.5457 20.0679C23.7063 20.2269 23.7964 20.4426 23.7964 20.6675V21.5155Z" fill="white"/>
<path d="M16.9484 23.2115C15.8133 23.2115 14.7247 23.6582 13.9221 24.4534C13.1194 25.2485 12.6685 26.327 12.6685 27.4515V34.2354C12.6685 34.4603 12.7587 34.676 12.9192 34.835C13.0798 34.9941 13.2975 35.0834 13.5245 35.0834C13.7515 35.0834 13.9692 34.9941 14.1298 34.835C14.2903 34.676 14.3805 34.4603 14.3805 34.2354V29.9955H34.924V34.2354C34.924 34.4603 35.0142 34.676 35.1748 34.835C35.3353 34.9941 35.553 35.0834 35.78 35.0834C36.007 35.0834 36.2248 34.9941 36.3853 34.835C36.5458 34.676 36.636 34.4603 36.636 34.2354V27.4515C36.636 26.327 36.1851 25.2485 35.3824 24.4534C34.5798 23.6582 33.4912 23.2115 32.3561 23.2115H16.9484Z" fill="white"/>
</svg>
