<svg width="19" height="19" viewBox="0 0 19 19" fill="none" xmlns="http://www.w3.org/2000/svg">
<path d="M16.5755 14.6789C16.0949 14.2505 15.6742 13.7594 15.3246 13.2188C14.943 12.4725 14.7142 11.6575 14.6518 10.8216V8.35974C14.6551 7.04687 14.1789 5.77798 13.3126 4.79148C12.4463 3.80497 11.2496 3.16876 9.94731 3.00238V2.35949C9.94731 2.18304 9.87721 2.01382 9.75244 1.88905C9.62767 1.76428 9.45845 1.69418 9.282 1.69418C9.10555 1.69418 8.93632 1.76428 8.81155 1.88905C8.68678 2.01382 8.61669 2.18304 8.61669 2.35949V3.01234C7.32606 3.19072 6.14381 3.83078 5.2889 4.81397C4.434 5.79716 3.96436 7.05686 3.96699 8.35974V10.8216C3.90457 11.6575 3.67584 12.4725 3.2942 13.2188C2.95078 13.7582 2.5368 14.2492 2.06326 14.6789C2.0101 14.7256 1.96749 14.7831 1.93828 14.8476C1.90906 14.912 1.8939 14.982 1.89381 15.0527V15.7305C1.89381 15.8627 1.94632 15.9894 2.03978 16.0829C2.13324 16.1763 2.26 16.2288 2.39217 16.2288H16.2466C16.3787 16.2288 16.5055 16.1763 16.599 16.0829C16.6924 15.9894 16.7449 15.8627 16.7449 15.7305V15.0527C16.7448 14.982 16.7297 14.912 16.7005 14.8476C16.6713 14.7831 16.6287 14.7256 16.5755 14.6789ZM2.9304 15.2321C3.39408 14.7842 3.80233 14.2823 4.1464 13.737C4.62712 12.8358 4.90761 11.8413 4.96869 10.8216V8.35974C4.94893 7.77569 5.0469 7.19362 5.25677 6.64821C5.46664 6.1028 5.78412 5.6052 6.1903 5.18504C6.59648 4.76489 7.08305 4.43076 7.62105 4.20256C8.15905 3.97437 8.73747 3.85677 9.32187 3.85677C9.90626 3.85677 10.4847 3.97437 11.0227 4.20256C11.5607 4.43076 12.0473 4.76489 12.4534 5.18504C12.8596 5.6052 13.1771 6.1028 13.387 6.64821C13.5968 7.19362 13.6948 7.77569 13.675 8.35974V10.8216C13.7361 11.8413 14.0166 12.8358 14.4973 13.737C14.8414 14.2823 15.2497 14.7842 15.7133 15.2321H2.9304Z" fill="#424242"/>
<path d="M9.34442 17.8638C9.65836 17.8565 9.95962 17.7385 10.1949 17.5306C10.4302 17.3226 10.5844 17.0382 10.6302 16.7275H8.00882C8.0559 17.0466 8.2173 17.3378 8.46298 17.5468C8.70866 17.7558 9.0219 17.8684 9.34442 17.8638V17.8638Z" fill="#424242"/>
<circle cx="14.1709" cy="4.87418" r="2.61639" fill="#F99A0E" stroke="white" stroke-width="0.74754"/>
</svg>
