<svg width="22" height="21" viewBox="0 0 22 21" fill="none" xmlns="http://www.w3.org/2000/svg">
<path d="M18.9108 4.23273C18.6752 3.58953 18.0155 3.13166 17.238 3.13166H14.2928V2.0415C14.2928 1.44191 13.7627 0.95134 13.1147 0.95134H8.40246C7.75452 0.95134 7.22439 1.44191 7.22439 2.0415V3.13166H4.27922C3.5017 3.13166 2.85376 3.58953 2.60637 4.23273L0.285576 10.4139C0.203111 10.6429 0.155989 10.8827 0.155989 11.1335V18.939C0.155989 19.8438 0.945293 20.5743 1.92309 20.5743C2.90088 20.5743 3.69019 19.8438 3.69019 18.939V18.3939H17.827V18.939C17.827 19.8329 18.6163 20.5743 19.5941 20.5743C20.5601 20.5743 21.3612 19.8438 21.3612 18.939V11.1335C21.3612 10.8936 21.3141 10.6429 21.2316 10.4139L18.9108 4.23273ZM4.27922 15.1234C3.30143 15.1234 2.51212 14.393 2.51212 13.4882C2.51212 12.5834 3.30143 11.853 4.27922 11.853C5.25702 11.853 6.04632 12.5834 6.04632 13.4882C6.04632 14.393 5.25702 15.1234 4.27922 15.1234ZM17.238 15.1234C16.2602 15.1234 15.4709 14.393 15.4709 13.4882C15.4709 12.5834 16.2602 11.853 17.238 11.853C18.2158 11.853 19.0051 12.5834 19.0051 13.4882C19.0051 14.393 18.2158 15.1234 17.238 15.1234ZM2.51212 9.67264L4.27922 4.76691H17.238L19.0051 9.67264H2.51212Z" fill="white"/>
</svg>
