<svg width="14" height="14" viewBox="0 0 14 14" fill="none" xmlns="http://www.w3.org/2000/svg">
<path d="M12.7512 5.49636L9.01418 4.91012L7.34364 1.25448C7.29801 1.15439 7.22295 1.07336 7.13022 1.02411C6.89767 0.900193 6.61508 1.00346 6.4988 1.25448L4.82826 4.91012L1.09126 5.49636C0.988232 5.51225 0.894034 5.56468 0.821914 5.64411C0.734724 5.74084 0.686679 5.87098 0.688335 6.00593C0.689991 6.14088 0.741212 6.2696 0.830745 6.3638L3.53452 9.2092L2.89574 13.2271C2.88076 13.3205 2.89034 13.4167 2.9234 13.5046C2.95645 13.5924 3.01166 13.6686 3.08276 13.7243C3.15386 13.78 3.23801 13.8132 3.32566 13.8199C3.41331 13.8267 3.50096 13.8068 3.57867 13.7625L6.92122 11.8655L10.2638 13.7625C10.355 13.8149 10.461 13.8324 10.5626 13.8133C10.8187 13.7657 10.9909 13.5035 10.9467 13.2271L10.3079 9.2092L13.0117 6.3638C13.0853 6.28596 13.1339 6.18428 13.1486 6.07307C13.1883 5.79504 13.0088 5.53767 12.7512 5.49636V5.49636Z" fill="#FDBF00"/>
</svg>
