<svg width="21" height="25" viewBox="0 0 21 25" fill="none" xmlns="http://www.w3.org/2000/svg">
<path d="M0.746536 17.8678C0.746536 18.9642 1.23701 19.9485 2.00417 20.6337V22.2285C2.00417 23.2626 2.84679 24.0973 3.89062 24.0973C4.93446 24.0973 5.77708 23.2626 5.77708 22.2285V21.6055H15.8382V22.2285C15.8382 23.2501 16.6808 24.0973 17.7246 24.0973C18.7559 24.0973 19.6111 23.2626 19.6111 22.2285V20.6337C20.3782 19.9485 20.8687 18.9642 20.8687 17.8678V5.40883C20.8687 1.04818 16.3664 0.425232 10.8076 0.425232C5.24887 0.425232 0.746536 1.04818 0.746536 5.40883V17.8678ZM5.14826 19.1137C4.10442 19.1137 3.26181 18.279 3.26181 17.2449C3.26181 16.2108 4.10442 15.376 5.14826 15.376C6.19209 15.376 7.03471 16.2108 7.03471 17.2449C7.03471 18.279 6.19209 19.1137 5.14826 19.1137ZM16.467 19.1137C15.4231 19.1137 14.5805 18.279 14.5805 17.2449C14.5805 16.2108 15.4231 15.376 16.467 15.376C17.5108 15.376 18.3534 16.2108 18.3534 17.2449C18.3534 18.279 17.5108 19.1137 16.467 19.1137ZM18.3534 11.6383H3.26181V5.40883H18.3534V11.6383Z" fill="white"/>
</svg>
