<svg width="20" height="18" viewBox="0 0 20 18" fill="none" xmlns="http://www.w3.org/2000/svg">
<path d="M17.7924 0.206223H2.17835C1.10196 0.206223 0.226593 1.07342 0.226593 2.13978V15.6747C0.226593 16.741 1.10196 17.6082 2.17835 17.6082H17.7924C18.8688 17.6082 19.7442 16.741 19.7442 15.6747V2.13978C19.7442 1.07342 18.8688 0.206223 17.7924 0.206223ZM17.7934 6.00689C17.7924 6.00689 17.7924 6.00689 17.7934 6.00689H17.3396L14.737 2.13978H17.7924L17.7934 6.00689ZM13.401 11.8076L8.03364 14.7079V8.90722L13.401 11.8076ZM12.4602 6.00689L9.85756 2.13978H12.3909L14.9936 6.00689H12.4602V6.00689ZM10.1142 6.00689H7.58083L4.97816 2.13978H7.51154L10.1142 6.00689ZM2.17835 2.13978H2.63214L5.23481 6.00689H2.17835V2.13978Z" fill="white"/>
</svg>
