<svg width="13" height="14" viewBox="0 0 13 14" fill="none" xmlns="http://www.w3.org/2000/svg">
<path d="M12.5156 5.49636L8.7858 4.91012L7.11846 1.25448C7.07292 1.15439 6.998 1.07336 6.90546 1.02411C6.67335 0.900193 6.3913 1.00346 6.27525 1.25448L4.60791 4.91012L0.878085 5.49636C0.775254 5.51225 0.681237 5.56468 0.609255 5.64411C0.522233 5.74084 0.47428 5.87098 0.475932 6.00593C0.477585 6.14088 0.528708 6.2696 0.618069 6.3638L3.31665 9.2092L2.6791 13.2271C2.66415 13.3205 2.67371 13.4167 2.7067 13.5046C2.7397 13.5924 2.7948 13.6686 2.86576 13.7243C2.93673 13.78 3.02071 13.8132 3.1082 13.8199C3.19568 13.8267 3.28316 13.8068 3.36072 13.7625L6.69686 11.8655L10.033 13.7625C10.1241 13.8149 10.2298 13.8324 10.3312 13.8133C10.5868 13.7657 10.7587 13.5035 10.7146 13.2271L10.0771 9.2092L12.7756 6.3638C12.8491 6.28596 12.8976 6.18428 12.9123 6.07307C12.9519 5.79504 12.7727 5.53767 12.5156 5.49636V5.49636Z" fill="#FDBF00"/>
</svg>
