<svg width="14" height="14" viewBox="0 0 14 14" fill="none" xmlns="http://www.w3.org/2000/svg">
<path d="M12.941 5.49636L9.21113 4.91012L7.5438 1.25448C7.49826 1.15439 7.42334 1.07336 7.33079 1.02411C7.09869 0.900193 6.81664 1.00346 6.70059 1.25448L5.03326 4.91012L1.30344 5.49636C1.20061 5.51225 1.10659 5.56468 1.03461 5.64411C0.947587 5.74084 0.899634 5.87098 0.901286 6.00593C0.902939 6.14088 0.954062 6.2696 1.04342 6.3638L3.742 9.2092L3.10445 13.2271C3.0895 13.3205 3.09906 13.4167 3.13205 13.5046C3.16505 13.5924 3.22015 13.6686 3.29111 13.7243C3.36208 13.78 3.44606 13.8132 3.53354 13.8199C3.62103 13.8267 3.70851 13.8068 3.78607 13.7625L7.12219 11.8655L10.4583 13.7625C10.5494 13.8149 10.6552 13.8324 10.7565 13.8133C11.0121 13.7657 11.184 13.5035 11.1399 13.2271L10.5024 9.2092L13.201 6.3638C13.2744 6.28596 13.3229 6.18428 13.3376 6.07307C13.3772 5.79504 13.198 5.53767 12.941 5.49636V5.49636Z" fill="#FDBF00"/>
</svg>
