<svg width="13" height="14" viewBox="0 0 13 14" fill="none" xmlns="http://www.w3.org/2000/svg">
<path d="M12.303 5.49636L8.57315 4.91012L6.90582 1.25448C6.86028 1.15439 6.78536 1.07336 6.69281 1.02411C6.46071 0.900193 6.17865 1.00346 6.0626 1.25448L4.39527 4.91012L0.665438 5.49636C0.562607 5.51225 0.46859 5.56468 0.396608 5.64411C0.309586 5.74084 0.261633 5.87098 0.263286 6.00593C0.264939 6.14088 0.316062 6.2696 0.405422 6.3638L3.104 9.2092L2.46645 13.2271C2.4515 13.3205 2.46106 13.4167 2.49406 13.5046C2.52705 13.5924 2.58215 13.6686 2.65312 13.7243C2.72408 13.78 2.80807 13.8132 2.89555 13.8199C2.98303 13.8267 3.07052 13.8068 3.14807 13.7625L6.48421 11.8655L9.82034 13.7625C9.91142 13.8149 10.0172 13.8324 10.1186 13.8133C10.3742 13.7657 10.546 13.5035 10.502 13.2271L9.86442 9.2092L12.563 6.3638C12.6364 6.28596 12.6849 6.18428 12.6996 6.07307C12.7393 5.79504 12.5601 5.53767 12.303 5.49636V5.49636Z" fill="#FDBF00"/>
</svg>
