<svg width="19" height="20" viewBox="0 0 19 20" fill="none" xmlns="http://www.w3.org/2000/svg">
<g clip-path="url(#clip0_1038_1444)">
<path d="M9.39264 17.8543C7.34988 17.8543 5.39079 17.0428 3.94634 15.5983C2.5019 14.1539 1.69041 12.1948 1.69041 10.152C1.69041 8.10927 2.5019 6.15018 3.94634 4.70574C5.39079 3.26129 7.34988 2.44981 9.39264 2.44981C11.4354 2.44981 13.3945 3.26129 14.8389 4.70574C16.2834 6.15018 17.0949 8.10927 17.0949 10.152C17.0949 12.1948 16.2834 14.1539 14.8389 15.5983C13.3945 17.0428 11.4354 17.8543 9.39264 17.8543ZM9.39264 18.9546C11.7272 18.9546 13.9662 18.0272 15.617 16.3764C17.2678 14.7256 18.1952 12.4866 18.1952 10.152C18.1952 7.81745 17.2678 5.57849 15.617 3.92769C13.9662 2.2769 11.7272 1.34949 9.39264 1.34949C7.05806 1.34949 4.8191 2.2769 3.1683 3.92769C1.5175 5.57849 0.590096 7.81745 0.590096 10.152C0.590096 12.4866 1.5175 14.7256 3.1683 16.3764C4.8191 18.0272 7.05806 18.9546 9.39264 18.9546V18.9546Z" fill="#1262AF"/>
<path d="M7.42767 6.41428C7.53147 6.36083 7.648 6.33705 7.76444 6.34556C7.88088 6.35407 7.99272 6.39454 8.08765 6.46251L12.5298 9.63548C12.6121 9.69418 12.6791 9.77168 12.7254 9.86153C12.7716 9.95138 12.7958 10.051 12.7958 10.152C12.7958 10.2531 12.7716 10.3527 12.7254 10.4425C12.6791 10.5324 12.6121 10.6099 12.5298 10.6686L8.08765 13.8416C7.99275 13.9095 7.88097 13.9499 7.76459 13.9584C7.64821 13.9669 7.53173 13.9432 7.42797 13.8898C7.32421 13.8364 7.23717 13.7554 7.17644 13.6558C7.11571 13.5562 7.08362 13.4417 7.08372 13.325V6.97907C7.0836 6.86241 7.11563 6.74797 7.17631 6.64833C7.23699 6.54869 7.32396 6.46771 7.42767 6.41428V6.41428Z" fill="#1262AF"/>
</g>
<defs>
<clipPath id="clip0_1038_1444">
<rect width="18.6885" height="18.6885" fill="white" transform="translate(0.0484009 0.807861)"/>
</clipPath>
</defs>
</svg>
