<svg width="20" height="20" viewBox="0 0 20 20" fill="none" xmlns="http://www.w3.org/2000/svg">
<g clip-path="url(#clip0_1038_1398)">
<path d="M9.75469 17.8543C7.71194 17.8543 5.75284 17.0428 4.3084 15.5983C2.86395 14.1539 2.05247 12.1948 2.05247 10.152C2.05247 8.10928 2.86395 6.15018 4.3084 4.70574C5.75284 3.26129 7.71194 2.44981 9.75469 2.44981C11.7975 2.44981 13.7565 3.26129 15.201 4.70574C16.6454 6.15018 17.4569 8.10928 17.4569 10.152C17.4569 12.1948 16.6454 14.1539 15.201 15.5983C13.7565 17.0428 11.7975 17.8543 9.75469 17.8543ZM9.75469 18.9546C12.0893 18.9546 14.3282 18.0272 15.979 16.3764C17.6298 14.7256 18.5572 12.4866 18.5572 10.152C18.5572 7.81745 17.6298 5.57849 15.979 3.92769C14.3282 2.2769 12.0893 1.34949 9.75469 1.34949C7.42011 1.34949 5.18115 2.2769 3.53035 3.92769C1.87956 5.57849 0.952148 7.81745 0.952148 10.152C0.952148 12.4866 1.87956 14.7256 3.53035 16.3764C5.18115 18.0272 7.42011 18.9546 9.75469 18.9546V18.9546Z" fill="#1262AF"/>
<path d="M7.78969 6.41428C7.89349 6.36083 8.01002 6.33705 8.12646 6.34556C8.2429 6.35407 8.35474 6.39454 8.44967 6.46251L12.8918 9.63548C12.9741 9.69418 13.0411 9.77168 13.0874 9.86153C13.1337 9.95138 13.1578 10.051 13.1578 10.152C13.1578 10.2531 13.1337 10.3527 13.0874 10.4425C13.0411 10.5324 12.9741 10.6099 12.8918 10.6686L8.44967 13.8416C8.35477 13.9095 8.24299 13.9499 8.12661 13.9584C8.01023 13.9669 7.89375 13.9432 7.78999 13.8898C7.68623 13.8364 7.5992 13.7554 7.53846 13.6558C7.47773 13.5562 7.44565 13.4417 7.44574 13.325V6.97907C7.44562 6.86241 7.47766 6.74797 7.53834 6.64833C7.59901 6.54869 7.68598 6.46771 7.78969 6.41428V6.41428Z" fill="#1262AF"/>
</g>
<defs>
<clipPath id="clip0_1038_1398">
<rect width="18.6885" height="18.6885" fill="white" transform="translate(0.4104 0.807861)"/>
</clipPath>
</defs>
</svg>
